<svg width="32" height="32" viewBox="0 0 32 32" fill="none" xmlns="http://www.w3.org/2000/svg">
<path d="M18.0079 17.2736C17.0762 17.2736 16.2877 16.9511 15.6426 16.306C14.9973 15.6606 14.6746 14.8722 14.6746 13.9406C14.6746 13.0089 14.9973 12.2204 15.6426 11.5753C16.2877 10.93 17.0762 10.6073 18.0079 10.6073C18.9395 10.6073 19.7279 10.93 20.3733 11.5753C21.0184 12.2204 21.3409 13.0089 21.3409 13.9406C21.3409 14.8722 21.0184 15.6606 20.3733 16.306C19.7279 16.9511 18.9395 17.2736 18.0079 17.2736ZM8.56327 21.7266C7.99416 21.7266 7.50438 21.5214 7.09394 21.111C6.68327 20.7003 6.47794 20.2104 6.47794 19.6413V8.23963C6.47794 7.67052 6.68327 7.18063 7.09394 6.76996C7.50438 6.35952 7.99416 6.1543 8.56327 6.1543H27.4523C28.0214 6.1543 28.5112 6.35952 28.9216 6.76996C29.3323 7.18063 29.5376 7.67052 29.5376 8.23963V19.6413C29.5376 20.2104 29.3323 20.7003 28.9216 21.111C28.5112 21.5214 28.0214 21.7266 27.4523 21.7266H8.56327ZM10.8883 20.0516H25.1276C25.1276 19.2932 25.3944 18.6477 25.9279 18.1153C26.4613 17.5829 27.1062 17.3166 27.8626 17.3166V10.5643C27.1042 10.5643 26.4587 10.2975 25.9263 9.76396C25.3938 9.23041 25.1276 8.58552 25.1276 7.8293H10.8883C10.8883 8.58774 10.6215 9.23319 10.0879 9.76563C9.55438 10.2981 8.90938 10.5643 8.15294 10.5643V17.3166C8.91138 17.3166 9.55683 17.5834 10.0893 18.117C10.6219 18.6505 10.8883 19.2954 10.8883 20.0516ZM25.5633 25.744H4.54627C3.97716 25.744 3.48738 25.5386 3.07694 25.128C2.66627 24.7173 2.46094 24.2274 2.46094 23.6583V10.1286H4.13594V23.6583C4.13594 23.761 4.17872 23.855 4.26427 23.9403C4.34983 24.0259 4.44383 24.0686 4.54627 24.0686H25.5633V25.744ZM8.56327 20.0516H8.15294V7.8293H8.56327C8.45216 7.8293 8.35605 7.86996 8.27494 7.9513C8.1936 8.03241 8.15294 8.12852 8.15294 8.23963V19.6413C8.15294 19.7524 8.1936 19.8486 8.27494 19.93C8.35605 20.0111 8.45216 20.0516 8.56327 20.0516Z" fill="black"/>
</svg>
