<svg width="32" height="32" viewBox="0 0 32 32" fill="none" xmlns="http://www.w3.org/2000/svg">
<path d="M10.9863 23.504H21.0137V21.8287H10.9863V23.504ZM10.9863 18.0083H21.0137V16.333H10.9863V18.0083ZM8.08567 28.6663C7.51256 28.6663 7.02167 28.462 6.613 28.0533C6.20433 27.6447 6 27.1538 6 26.5807V5.41867C6 4.84556 6.20433 4.35468 6.613 3.94601C7.02167 3.53734 7.51256 3.33301 8.08567 3.33301H19.3383L26 9.99467V26.5807C26 27.1538 25.7957 27.6447 25.387 28.0533C24.9783 28.462 24.4874 28.6663 23.9143 28.6663H8.08567ZM18.501 10.7827V5.00834H8.08567C7.983 5.00834 7.88889 5.05101 7.80333 5.13634C7.718 5.2219 7.67533 5.31601 7.67533 5.41867V26.5807C7.67533 26.6833 7.718 26.7775 7.80333 26.863C7.88889 26.9483 7.983 26.991 8.08567 26.991H23.9143C24.017 26.991 24.1111 26.9483 24.1967 26.863C24.282 26.7775 24.3247 26.6833 24.3247 26.5807V10.7827H18.501Z" fill="black"/>
</svg>
