<svg width="32" height="32" viewBox="0 0 32 32" fill="none" xmlns="http://www.w3.org/2000/svg">
<path d="M5.41965 28.6663C4.84654 28.6663 4.35565 28.462 3.94698 28.0533C3.53832 27.6447 3.33398 27.1538 3.33398 26.5807V12.0853C3.33398 11.5122 3.53832 11.0213 3.94698 10.6127C4.35565 10.204 4.84654 9.99967 5.41965 9.99967H13.1547V5.00834C13.1547 4.55479 13.3205 4.16223 13.6523 3.83067C13.9841 3.4989 14.3799 3.33301 14.8397 3.33301H17.164C17.6238 3.33301 18.0192 3.4989 18.3503 3.83067C18.6812 4.16223 18.8467 4.55479 18.8467 5.00834V9.99967H26.5817C27.1548 9.99967 27.6457 10.204 28.0543 10.6127C28.463 11.0213 28.6673 11.5122 28.6673 12.0853V26.5807C28.6673 27.1538 28.463 27.6447 28.0543 28.0533C27.6457 28.462 27.1548 28.6663 26.5817 28.6663H5.41965ZM5.41965 26.991H26.5817C26.7014 26.991 26.7998 26.9526 26.8767 26.8757C26.9535 26.7988 26.992 26.7005 26.992 26.5807V12.0853C26.992 11.9656 26.9535 11.8672 26.8767 11.7903C26.7998 11.7135 26.7014 11.675 26.5817 11.675H18.8467V12.675C18.8467 13.169 18.6804 13.5717 18.348 13.883C18.0155 14.1943 17.6203 14.35 17.1623 14.35H14.839C14.381 14.35 13.9858 14.1943 13.6533 13.883C13.3209 13.5717 13.1547 13.169 13.1547 12.675V11.675H5.41965C5.29987 11.675 5.20154 11.7135 5.12465 11.7903C5.04776 11.8672 5.00932 11.9656 5.00932 12.0853V26.5807C5.00932 26.7005 5.04776 26.7988 5.12465 26.8757C5.20154 26.9526 5.29987 26.991 5.41965 26.991ZM8.07932 23.5023H15.6467V23.1707C15.6467 22.818 15.5555 22.4999 15.3733 22.2163C15.1909 21.9328 14.9487 21.7272 14.6467 21.5997C14.0787 21.3843 13.584 21.2348 13.1627 21.151C12.7413 21.0672 12.321 21.0253 11.9017 21.0253C11.4639 21.0253 11.0155 21.0732 10.5567 21.169C10.0978 21.2646 9.61276 21.4081 9.10165 21.5997C8.78476 21.7272 8.5351 21.9328 8.35265 22.2163C8.17043 22.4999 8.07932 22.818 8.07932 23.1707V23.5023ZM18.7937 21.3637H24.2897V19.9363H18.7937V21.3637ZM11.9057 19.9363C12.3725 19.9363 12.7712 19.7699 13.1017 19.437C13.4321 19.1039 13.5973 18.7037 13.5973 18.2363C13.5973 17.7692 13.4321 17.3691 13.1017 17.036C12.7712 16.7029 12.3725 16.5363 11.9057 16.5363C11.4385 16.5363 11.0384 16.7028 10.7053 17.0357C10.3722 17.3686 10.2057 17.7702 10.2057 18.2407C10.2057 18.7051 10.3722 19.1039 10.7053 19.437C11.0384 19.7699 11.4385 19.9363 11.9057 19.9363ZM18.7937 17.887H24.2897V16.4597H18.7937V17.887ZM14.8297 12.675H17.1717V5.00834H14.8297V12.675Z" fill="black"/>
</svg>
