<svg width="32" height="32" viewBox="0 0 32 32" fill="none" xmlns="http://www.w3.org/2000/svg">
<path d="M15.9937 22.708C17.4952 22.708 18.7592 22.1948 19.7857 21.1683C20.8121 20.1419 21.3253 18.8779 21.3253 17.3763C21.3253 15.875 20.8121 14.6133 19.7857 13.5913C18.7592 12.5693 17.4952 12.0583 15.9937 12.0583C14.4923 12.0583 13.2307 12.5693 12.2087 13.5913C11.1869 14.6133 10.676 15.875 10.676 17.3763C10.676 18.8779 11.1869 20.1419 12.2087 21.1683C13.2307 22.1948 14.4923 22.708 15.9937 22.708ZM15.9937 21.0327C14.9532 21.0327 14.086 20.6834 13.392 19.985C12.698 19.2863 12.351 18.4168 12.351 17.3763C12.351 16.3359 12.698 15.4687 13.392 14.7747C14.086 14.0807 14.9532 13.7337 15.9937 13.7337C17.0343 13.7337 17.9039 14.0807 18.6023 14.7747C19.301 15.4687 19.6503 16.3359 19.6503 17.3763C19.6503 18.4168 19.301 19.2863 18.6023 19.985C17.9039 20.6834 17.0343 21.0327 15.9937 21.0327ZM5.41965 27.3337C4.84654 27.3337 4.35565 27.1293 3.94698 26.7207C3.53832 26.312 3.33398 25.8211 3.33398 25.248V9.53199C3.33398 8.96666 3.53832 8.47777 3.94698 8.06533C4.35565 7.65288 4.84654 7.44666 5.41965 7.44666H9.82965L12.2827 4.66699H19.7187L22.1717 7.44666H26.5817C27.147 7.44666 27.6359 7.65288 28.0483 8.06533C28.461 8.47777 28.6673 8.96666 28.6673 9.53199V25.248C28.6673 25.8211 28.461 26.312 28.0483 26.7207C27.6359 27.1293 27.147 27.3337 26.5817 27.3337H5.41965ZM5.41965 25.6583H26.5817C26.7014 25.6583 26.7998 25.6199 26.8767 25.543C26.9535 25.4661 26.992 25.3678 26.992 25.248V9.53199C26.992 9.41799 26.9535 9.3211 26.8767 9.24132C26.7998 9.16155 26.7014 9.12166 26.5817 9.12166H21.4057L18.9597 6.34233H13.0417L10.5957 9.12166H5.41965C5.29987 9.12166 5.20154 9.16155 5.12465 9.24132C5.04776 9.3211 5.00932 9.41799 5.00932 9.53199V25.248C5.00932 25.3678 5.04776 25.4661 5.12465 25.543C5.20154 25.6199 5.29987 25.6583 5.41965 25.6583Z" fill="black"/>
</svg>
